<svg id="visual" viewBox="0 0 1000 1000" width="1000" height="1000" xmlns="http://www.w3.org/2000/svg" xmlns:xlink="http://www.w3.org/1999/xlink" version="1.1"><rect x="0" y="0" width="1000" height="1000" fill="#fcf9f8"></rect><path d="M0 365L129 365L129 322L257 322L257 256L386 256L386 381L514 381L514 284L643 284L643 291L771 291L771 269L900 269L900 301L900 601L900 601L771 601L771 601L643 601L643 601L514 601L514 601L386 601L386 601L257 601L257 601L129 601L129 601L0 601Z" fill="#fff7f4"></path><path d="M0 422L129 422L129 403L257 403L257 406L386 406L386 390L514 390L514 371L643 371L643 360L771 360L771 374L900 374L900 351L900 601L900 601L771 601L771 601L643 601L643 601L514 601L514 601L386 601L386 601L257 601L257 601L129 601L129 601L0 601Z" fill="#f8f2ee"></path><path d="M0 505L129 505L129 447L257 447L257 459L386 459L386 509L514 509L514 515L643 515L643 482L771 482L771 506L900 506L900 490L900 601L900 601L771 601L771 601L643 601L643 601L514 601L514 601L386 601L386 601L257 601L257 601L129 601L129 601L0 601Z" fill="#f1ece9"></path></svg>